<?xml version="1.0" standalone="no"?>
<!DOCTYPE svg PUBLIC "-//W3C//DTD SVG 20010904//EN"
 "http://www.w3.org/TR/2001/REC-SVG-20010904/DTD/svg10.dtd">
<svg version="1.0" xmlns="http://www.w3.org/2000/svg"
 width="512.000000pt" height="512.000000pt" viewBox="0 0 512.000000 512.000000"
 preserveAspectRatio="xMidYMid meet">
<metadata>
Created by potrace 1.14, written by Peter Selinger 2001-2017
</metadata>
<g transform="translate(0.000000,512.000000) scale(0.100000,-0.100000)"
fill="#000000" stroke="none">
<path d="M2418 4935 c-3 -14 -3 -27 0 -30 3 -3 7 -29 8 -58 6 -108 26 -386 29
-406 4 -28 -4 -30 -48 -15 -23 9 -50 17 -59 20 -10 2 -28 6 -40 9 -32 8 -159
21 -197 20 -17 0 -31 4 -31 10 0 6 -3 7 -8 0 -4 -5 -25 -10 -47 -10 -22 0 -62
-5 -90 -12 -27 -7 -51 -10 -54 -8 -2 3 -10 0 -18 -6 -7 -6 -13 -9 -13 -5 0 4
-13 0 -30 -9 -16 -8 -33 -16 -37 -17 -54 -8 -221 -125 -313 -217 -65 -66 -111
-102 -192 -149 -59 -34 -110 -62 -113 -62 -3 0 -30 -16 -60 -35 -30 -19 -55
-33 -55 -30 0 2 -24 -12 -52 -31 -56 -36 -67 -40 -69 -24 -1 6 -2 13 -4 18 -1
4 -5 21 -9 37 -8 31 -19 66 -32 100 -4 11 -6 23 -6 28 1 4 -4 23 -12 41 -8 19
-12 37 -9 40 3 3 0 12 -7 21 -7 8 -10 15 -6 15 3 0 1 12 -5 28 -6 15 -13 36
-15 47 -1 11 -30 115 -64 230 -33 116 -62 219 -64 230 -3 11 -5 20 -6 20 -2 0
-5 14 -14 54 -3 12 -9 28 -14 35 -5 6 -8 19 -7 29 4 20 -21 35 -35 21 -5 -5
-11 -51 -12 -102 -2 -50 -5 -92 -8 -92 -3 0 -5 -35 -6 -78 -1 -42 -4 -129 -8
-192 -3 -63 -9 -153 -11 -200 -3 -47 -7 -125 -10 -175 -3 -49 -8 -130 -10
-180 -3 -49 -7 -121 -10 -159 -3 -45 0 -75 7 -84 7 -8 17 -22 23 -32 33 -57
100 -166 105 -170 8 -7 64 -95 62 -97 -2 -3 63 -104 78 -120 5 -7 10 -15 10
-18 0 -5 30 -53 117 -187 24 -36 43 -69 43 -73 0 -3 -13 -17 -29 -31 -33 -28
-71 -98 -75 -141 -1 -15 3 -39 10 -53 14 -30 108 -117 141 -133 13 -5 23 -14
23 -18 0 -4 21 -19 47 -35 27 -15 50 -28 52 -30 2 -2 -7 -19 -19 -37 -17 -25
-31 -34 -52 -35 -17 0 -60 -23 -109 -56 -44 -31 -82 -56 -85 -56 -2 0 -12 -7
-21 -15 -10 -9 -36 -31 -58 -51 -22 -19 -58 -49 -80 -66 -22 -17 -57 -52 -77
-77 -34 -42 -71 -86 -98 -118 -5 -7 -15 -24 -22 -38 -6 -14 -14 -25 -17 -25
-4 0 -15 -20 -26 -45 -11 -25 -22 -45 -25 -46 -3 0 -18 -2 -35 -3 -16 -1 -44
-10 -62 -19 -32 -17 -83 -75 -87 -99 -1 -7 -4 -17 -8 -23 -17 -28 14 -126 54
-169 26 -28 71 -49 108 -49 14 0 27 -4 30 -7 11 -16 90 -58 165 -89 44 -18 91
-38 105 -44 14 -5 30 -11 35 -13 6 -1 64 -21 130 -45 66 -23 134 -45 150 -49
47 -13 148 -44 302 -94 77 -25 152 -47 165 -50 12 -3 48 -11 78 -20 30 -8 58
-12 62 -10 5 3 8 0 8 -6 0 -6 6 -10 13 -8 6 1 21 -1 32 -5 42 -13 130 -27 206
-31 31 -2 61 -6 67 -10 7 -4 12 -3 12 3 0 6 11 6 29 1 16 -4 31 -6 34 -4 2 3
28 6 58 9 124 10 183 35 241 106 l34 41 60 -11 c32 -6 74 -13 92 -16 17 -3 47
-8 65 -11 17 -4 46 -8 62 -9 17 -1 43 -6 59 -10 24 -7 33 -4 47 13 9 12 22 22
28 22 11 0 36 -48 33 -63 -3 -13 -14 -81 -17 -102 -1 -11 -3 -20 -4 -20 -4 0
-11 -38 -16 -75 -2 -19 -4 -35 -5 -35 -2 0 -7 -24 -15 -69 -4 -21 -9 -48 -12
-60 -2 -11 -6 -34 -9 -51 -2 -16 -10 -60 -18 -96 -20 -89 -26 -118 -32 -158
-2 -19 -9 -54 -14 -78 -10 -41 -8 -47 16 -76 15 -18 32 -35 38 -39 7 -4 51 2
100 13 48 11 97 21 109 23 12 3 22 5 22 6 0 1 11 3 25 5 14 1 57 10 95 20 39
9 79 18 90 20 11 2 34 6 50 10 17 4 38 7 48 8 9 1 17 5 17 10 0 4 3 6 8 3 4
-2 34 2 67 10 33 7 74 16 90 19 17 3 48 9 69 14 22 6 44 8 48 5 4 -3 8 -1 8 3
0 5 8 9 18 10 9 0 26 3 37 6 11 3 56 13 100 22 44 9 89 19 100 21 11 3 29 7
40 9 32 7 69 16 85 20 8 2 20 4 26 4 17 1 84 86 90 113 5 24 15 73 18 97 3 13
36 38 36 25 0 -3 6 -2 13 4 6 5 27 13 45 17 18 4 39 17 48 30 9 14 22 21 32
18 22 -5 122 83 122 108 0 10 7 19 15 19 14 0 19 12 16 33 0 4 4 7 10 7 5 0 8
4 5 8 -3 5 1 20 9 35 8 15 11 27 8 27 -3 0 0 6 6 13 6 8 8 17 4 20 -3 4 -1 7
5 7 7 0 11 3 11 8 -1 4 2 21 6 39 6 26 17 37 54 55 44 21 88 49 121 76 42 35
100 98 100 110 0 6 3 12 8 12 10 0 49 88 60 135 4 22 7 60 6 85 -2 39 -5 60
-17 115 -6 27 -80 160 -115 207 -47 63 -83 100 -180 187 -39 36 -69 68 -66 73
3 5 7 27 10 51 2 23 6 53 9 67 3 14 9 43 14 65 5 22 9 45 11 50 6 26 -3 47
-39 89 -21 25 -42 42 -45 39 -3 -4 -6 -2 -6 4 0 7 -34 3 -92 -9 -111 -23 -123
-26 -123 -28 0 -1 -15 -3 -34 -6 -19 -2 -52 -9 -73 -15 -35 -9 -44 -7 -96 22
-31 18 -60 37 -63 42 -3 5 -9 8 -13 8 -15 -1 -42 15 -61 36 -27 31 -97 64
-111 52 -14 -11 -45 15 -67 56 -16 32 -134 157 -180 193 -27 20 -29 26 -31
101 -1 45 -7 85 -14 94 -13 15 -18 32 -28 97 -8 53 -33 146 -61 230 -13 41
-26 80 -27 85 -4 24 -53 136 -87 200 -20 39 -42 88 -49 110 -7 22 -19 48 -28
58 -8 9 -12 17 -8 17 4 0 1 7 -7 15 -8 8 -25 31 -38 52 -29 49 -267 289 -325
328 -27 18 -49 43 -56 63 -7 17 -16 32 -20 32 -4 0 -7 3 -6 8 0 4 -9 28 -21
54 -12 26 -21 51 -21 54 1 4 -2 10 -7 13 -7 5 -33 54 -38 71 -1 3 -20 43 -42
90 -111 233 -153 322 -153 326 0 3 -6 12 -14 19 -12 12 -14 11 -18 -10z m1012
-2445 c14 -9 52 -29 85 -44 87 -39 86 -38 101 -81 7 -22 14 -43 14 -46 0 -4
-21 -10 -47 -14 -73 -12 -76 -13 -82 -23 -7 -10 -172 -190 -238 -260 -24 -24
-43 -47 -43 -51 0 -3 -9 -14 -20 -24 -11 -9 -23 -31 -26 -47 -6 -26 -12 -30
-60 -41 -46 -10 -61 -20 -96 -61 -32 -38 -47 -49 -65 -45 -12 2 -24 -1 -26 -7
-3 -6 -10 1 -16 17 -6 15 -18 28 -28 28 -10 1 -109 1 -221 1 l-203 0 -35 48
c-19 26 -49 59 -67 72 -35 27 -136 65 -195 74 -20 3 -43 7 -51 10 -17 6 -145
18 -186 17 -54 0 -261 -13 -285 -18 -14 -3 -49 -7 -80 -10 -31 -3 -67 -7 -80
-10 -14 -3 -45 -7 -70 -10 -25 -3 -56 -7 -70 -10 -14 -3 -41 -8 -60 -10 -19
-3 -55 -8 -80 -12 -25 -4 -53 -7 -62 -7 -10 0 -18 -4 -18 -9 0 -4 -4 -6 -9 -3
-5 3 -30 2 -55 -3 -26 -5 -46 -5 -46 0 0 5 5 9 12 9 6 0 8 3 5 6 -4 4 4 16 17
28 63 57 196 252 192 282 -3 18 7 30 50 67 19 16 24 16 64 2 24 -8 64 -15 89
-14 43 2 91 -16 91 -33 0 -5 4 -8 9 -8 6 0 29 -13 53 -28 72 -48 270 -115 375
-127 21 -2 49 -7 63 -10 147 -36 423 -35 585 0 17 4 37 8 45 10 8 2 16 4 18 4
1 1 4 1 7 2 2 0 19 5 37 10 18 6 41 12 51 14 36 8 153 58 227 98 41 22 85 45
97 51 13 6 23 14 23 19 0 4 5 7 11 7 18 0 146 108 195 164 49 57 55 59 104 26z
m1015 -79 c3 -5 2 -12 -3 -15 -5 -3 -9 1 -9 9 0 17 3 19 12 6z m-119 -16 c-1
-8 -5 -17 -8 -21 -5 -4 -4 16 1 34 3 9 9 -1 7 -13z m89 6 c-9 -8 -36 -10 -30
-2 2 4 11 8 20 8 8 0 13 -3 10 -6z m-225 -21 c0 -5 -5 -10 -11 -10 -5 0 -7 5
-4 10 3 6 8 10 11 10 2 0 4 -4 4 -10z m5 -40 c3 -6 -1 -7 -9 -4 -18 7 -21 14
-7 14 6 0 13 -4 16 -10z m135 -14 c0 -3 -4 -8 -10 -11 -5 -3 -10 -1 -10 4 0 6
5 11 10 11 6 0 10 -2 10 -4z m-46 -44 c3 -5 -1 -9 -9 -9 -8 0 -12 4 -9 9 3 4
7 8 9 8 2 0 6 -4 9 -8z m-664 -58 c0 -8 -19 -13 -24 -6 -3 5 1 9 9 9 8 0 15
-2 15 -3z m-94 -39 c-1 -8 -5 -17 -8 -21 -5 -4 -4 16 1 34 3 9 9 -1 7 -13z
m-26 -19 c0 -2 -8 -10 -17 -17 -16 -13 -17 -12 -4 4 13 16 21 21 21 13z m950
0 c0 -3 -4 -8 -10 -11 -5 -3 -10 -1 -10 4 0 6 5 11 10 11 6 0 10 -2 10 -4z
m-780 -26 c0 -5 -2 -10 -4 -10 -3 0 -8 5 -11 10 -3 6 -1 10 4 10 6 0 11 -4 11
-10z m-144 -15 c-1 -8 -5 -17 -8 -21 -5 -4 -4 16 1 34 3 9 9 -1 7 -13z m139
-25 c3 -5 1 -10 -4 -10 -6 0 -11 5 -11 10 0 6 2 10 4 10 3 0 8 -4 11 -10z
m-131 -18 c3 -5 -1 -9 -9 -9 -8 0 -12 4 -9 9 3 4 7 8 9 8 2 0 6 -4 9 -8z m186
-18 c0 -8 -19 -13 -24 -6 -3 5 1 9 9 9 8 0 15 -2 15 -3z m-210 -20 c0 -8 -19
-13 -24 -6 -3 5 1 9 9 9 8 0 15 -2 15 -3z m-104 -43 c0 -17 -3 -28 -6 -26 -5
3 -6 38 -1 53 4 10 7 -3 7 -27z m284 15 c0 -2 -8 -10 -17 -17 -16 -13 -17 -12
-4 4 13 16 21 21 21 13z m-246 -22 c3 -8 2 -12 -4 -9 -6 3 -10 10 -10 16 0 14
7 11 14 -7z m121 -2 c-3 -3 -11 0 -18 7 -9 10 -8 11 6 5 10 -3 15 -9 12 -12z
m62 -7 c0 -8 -4 -12 -9 -9 -5 3 -6 10 -3 15 9 13 12 11 12 -6z m-340 -10 c0
-8 -4 -12 -9 -9 -5 3 -6 10 -3 15 9 13 12 11 12 -6z m208 5 c3 -6 -1 -7 -9 -4
-18 7 -21 14 -7 14 6 0 13 -4 16 -10z m-165 -4 c0 -2 -8 -10 -17 -17 -16 -13
-17 -12 -4 4 13 16 21 21 21 13z m364 -14 c3 -5 -1 -9 -9 -9 -8 0 -15 4 -15 9
0 4 4 8 9 8 6 0 12 -4 15 -8z m-424 -22 c0 -5 -5 -10 -11 -10 -5 0 -7 5 -4 10
3 6 8 10 11 10 2 0 4 -4 4 -10z m407 -18 c-10 -10 -14 -22 -10 -27 5 -4 2 -5
-5 -1 -11 6 -10 12 4 27 9 10 19 19 22 19 3 0 -2 -8 -11 -18z m-316 -15 c-10
-9 -11 -8 -5 6 3 10 9 15 12 12 3 -3 0 -11 -7 -18z m40 6 c13 -16 12 -17 -3
-4 -17 13 -22 21 -14 21 2 0 10 -8 17 -17z m223 1 c3 -8 2 -12 -4 -9 -6 3 -10
10 -10 16 0 14 7 11 14 -7z m-100 -13 c3 -5 -2 -15 -12 -22 -15 -12 -16 -12
-5 2 7 9 10 19 6 22 -3 4 -4 7 0 7 3 0 8 -4 11 -9z m206 -1 c0 -5 -2 -10 -4
-10 -3 0 -8 5 -11 10 -3 6 -1 10 4 10 6 0 11 -4 11 -10z m-180 -40 c0 -5 -2
-10 -4 -10 -3 0 -8 5 -11 10 -3 6 -1 10 4 10 6 0 11 -4 11 -10z m-293 -17
c-14 -14 -19 -15 -29 -4 -11 10 -10 11 3 6 10 -4 20 -2 24 4 3 6 9 11 13 11 3
0 -1 -8 -11 -17z m386 -78 c-3 -9 -8 -14 -10 -11 -3 3 -2 9 2 15 9 16 15 13 8
-4z m85 -10 c-3 -3 -9 2 -12 12 -6 14 -5 15 5 6 7 -7 10 -15 7 -18z m-278 -9
c0 -3 -4 -8 -10 -11 -5 -3 -10 -1 -10 4 0 6 5 11 10 11 6 0 10 -2 10 -4z m78
-31 c-3 -3 -9 2 -12 12 -6 14 -5 15 5 6 7 -7 10 -15 7 -18z m22 -55 c0 -5 -5
-10 -11 -10 -5 0 -7 5 -4 10 3 6 8 10 11 10 2 0 4 -4 4 -10z m213 -15 c-3 -9
-8 -14 -10 -11 -3 3 -2 9 2 15 9 16 15 13 8 -4z m-13 -65 c0 -5 -2 -10 -4 -10
-3 0 -8 5 -11 10 -3 6 -1 10 4 10 6 0 11 -4 11 -10z m-145 -308 c-3 -3 -11 0
-18 7 -9 10 -8 11 6 5 10 -3 15 -9 12 -12z m241 6 c3 -4 -1 -5 -10 -4 -8 1
-18 5 -22 8 -3 4 1 5 10 4 8 -1 18 -5 22 -8z m-302 -44 c3 -8 2 -12 -4 -9 -6
3 -10 10 -10 16 0 14 7 11 14 -7z m343 -9 c0 -8 -4 -12 -9 -9 -5 3 -6 10 -3
15 9 13 12 11 12 -6z m-57 -45 c0 -5 -2 -10 -4 -10 -3 0 -8 5 -11 10 -3 6 -1
10 4 10 6 0 11 -4 11 -10z m-163 -45 c0 -8 -4 -12 -9 -9 -5 3 -6 10 -3 15 9
13 12 11 12 -6z m148 -95 c3 -6 -1 -7 -9 -4 -18 7 -21 14 -7 14 6 0 13 -4 16
-10z m-229 -46 c0 -13 -2 -22 -5 -19 -3 3 -6 17 -7 31 0 13 2 22 5 19 3 -3 6
-17 7 -31z m-59 -9 c0 -8 -4 -12 -9 -9 -5 3 -6 10 -3 15 9 13 12 11 12 -6z
m-62 -25 c3 -5 1 -10 -4 -10 -6 0 -11 5 -11 10 0 6 2 10 4 10 3 0 8 -4 11 -10z
m100 -20 c3 -5 1 -10 -4 -10 -6 0 -11 5 -11 10 0 6 2 10 4 10 3 0 8 -4 11 -10z
m101 -22 c3 -4 -1 -5 -10 -4 -8 1 -18 5 -22 8 -3 4 1 5 10 4 8 -1 18 -5 22 -8z
m298 4 c3 -5 -1 -9 -9 -9 -8 0 -12 4 -9 9 3 4 7 8 9 8 2 0 6 -4 9 -8z m-314
-42 c0 -5 -2 -10 -4 -10 -3 0 -8 5 -11 10 -3 6 -1 10 4 10 6 0 11 -4 11 -10z
m-724 -36 c1 -9 0 -13 -4 -10 -3 4 -7 14 -8 22 -1 9 0 13 4 10 3 -4 7 -14 8
-22z m268 18 c3 -5 -1 -9 -9 -9 -8 0 -12 4 -9 9 3 4 7 8 9 8 2 0 6 -4 9 -8z
m591 -22 c3 -5 1 -10 -4 -10 -6 0 -11 5 -11 10 0 6 2 10 4 10 3 0 8 -4 11 -10z
m-419 -26 c1 -9 0 -13 -4 -10 -3 4 -7 14 -8 22 -1 9 0 13 4 10 3 -4 7 -14 8
-22z m-42 8 c3 -5 -1 -9 -9 -9 -8 0 -12 4 -9 9 3 4 7 8 9 8 2 0 6 -4 9 -8z
m-119 -22 c3 -5 1 -10 -4 -10 -6 0 -11 5 -11 10 0 6 2 10 4 10 3 0 8 -4 11
-10z m382 -15 c0 -8 -4 -12 -9 -9 -5 3 -6 10 -3 15 9 13 12 11 12 -6z m-677
-5 c0 -5 -2 -10 -4 -10 -3 0 -8 5 -11 10 -3 6 -1 10 4 10 6 0 11 -4 11 -10z
m560 4 c0 -8 -19 -13 -24 -6 -3 5 1 9 9 9 8 0 15 -2 15 -3z m240 -4 c0 -5 -5
-10 -11 -10 -5 0 -7 5 -4 10 3 6 8 10 11 10 2 0 4 -4 4 -10z m-466 -26 c3 -8
2 -12 -4 -9 -6 3 -10 10 -10 16 0 14 7 11 14 -7z m166 10 c0 -8 -19 -13 -24
-6 -3 5 1 9 9 9 8 0 15 -2 15 -3z m254 -2 c3 -5 -1 -9 -9 -9 -8 0 -12 4 -9 9
3 4 7 8 9 8 2 0 6 -4 9 -8z m-620 -40 c3 -5 -1 -9 -9 -9 -8 0 -12 4 -9 9 3 4
7 8 9 8 2 0 6 -4 9 -8z m210 0 c3 -5 -1 -9 -9 -9 -8 0 -12 4 -9 9 3 4 7 8 9 8
2 0 6 -4 9 -8z m451 -2 c3 -5 1 -10 -4 -10 -6 0 -11 5 -11 10 0 6 2 10 4 10 3
0 8 -4 11 -10z m-130 -20 c3 -6 -1 -7 -9 -4 -18 7 -21 14 -7 14 6 0 13 -4 16
-10z m-45 -24 c-7 -7 -13 -7 -20 0 -6 6 -3 10 10 10 13 0 16 -4 10 -10z m-205
-16 c3 -5 1 -10 -4 -10 -6 0 -11 5 -11 10 0 6 2 10 4 10 3 0 8 -4 11 -10z
m360 0 c3 -5 1 -10 -4 -10 -6 0 -11 5 -11 10 0 6 2 10 4 10 3 0 8 -4 11 -10z
m105 0 c0 -5 -5 -10 -11 -10 -5 0 -7 5 -4 10 3 6 8 10 11 10 2 0 4 -4 4 -10z
m-900 -4 c0 -2 -8 -10 -17 -17 -16 -13 -17 -12 -4 4 13 16 21 21 21 13z m393
-11 c-3 -9 -8 -14 -10 -11 -3 3 -2 9 2 15 9 16 15 13 8 -4z m-69 -3 c3 -5 -1
-9 -9 -9 -8 0 -12 4 -9 9 3 4 7 8 9 8 2 0 6 -4 9 -8z m506 4 c0 -2 -8 -10 -17
-17 -16 -13 -17 -12 -4 4 13 16 21 21 21 13z m34 -4 c3 -5 -1 -9 -9 -9 -8 0
-12 4 -9 9 3 4 7 8 9 8 2 0 6 -4 9 -8z m-107 -17 c0 -8 -4 -12 -9 -9 -5 3 -6
10 -3 15 9 13 12 11 12 -6z m-312 -25 c10 -11 16 -20 13 -20 -3 0 -13 9 -23
20 -10 11 -16 20 -13 20 3 0 13 -9 23 -20z m-51 2 c3 -5 -1 -9 -9 -9 -8 0 -12
4 -9 9 3 4 7 8 9 8 2 0 6 -4 9 -8z m476 2 c0 -8 -19 -13 -24 -6 -3 5 1 9 9 9
8 0 15 -2 15 -3z m221 -17 c-10 -9 -11 -8 -5 6 3 10 9 15 12 12 3 -3 0 -11 -7
-18z m-930 -4 c13 -16 12 -17 -3 -4 -10 7 -18 15 -18 17 0 8 8 3 21 -13z m54
8 c3 -5 2 -12 -3 -15 -5 -3 -9 1 -9 9 0 17 3 19 12 6z m-198 -16 c0 -8 -4 -12
-9 -9 -5 3 -6 10 -3 15 9 13 12 11 12 -6z m94 -28 c-10 -9 -11 -8 -5 6 3 10 9
15 12 12 3 -3 0 -11 -7 -18z m-181 -3 c0 -8 -19 -13 -24 -6 -3 5 1 9 9 9 8 0
15 -2 15 -3z m430 0 c0 -8 -19 -13 -24 -6 -3 5 1 9 9 9 8 0 15 -2 15 -3z m310
-24 c8 -5 11 -10 5 -10 -5 0 -17 5 -25 10 -8 5 -10 10 -5 10 6 0 17 -5 25 -10z
m163 -15 c-3 -9 -8 -14 -10 -11 -3 3 -2 9 2 15 9 16 15 13 8 -4z m-436 -10 c0
-8 -4 -12 -9 -9 -5 3 -6 10 -3 15 9 13 12 11 12 -6z m-480 -20 c0 -8 -4 -12
-9 -9 -5 3 -6 10 -3 15 9 13 12 11 12 -6z m717 -1 c3 -8 2 -12 -4 -9 -6 3 -10
10 -10 16 0 14 7 11 14 -7z m141 -2 c-3 -3 -11 0 -18 7 -9 10 -8 11 6 5 10 -3
15 -9 12 -12z m296 -5 c-10 -9 -11 -8 -5 6 3 10 9 15 12 12 3 -3 0 -11 -7 -18z
m-671 -1 c0 -2 -7 -7 -16 -10 -8 -3 -12 -2 -9 4 6 10 25 14 25 6z m424 -24 c3
-5 -1 -9 -9 -9 -8 0 -12 4 -9 9 3 4 7 8 9 8 2 0 6 -4 9 -8z m-189 -22 c3 -5 1
-10 -4 -10 -6 0 -11 5 -11 10 0 6 2 10 4 10 3 0 8 -4 11 -10z m106 -17 c13
-16 12 -17 -3 -4 -17 13 -22 21 -14 21 2 0 10 -8 17 -17z m-176 -3 c-3 -5 -12
-10 -18 -10 -7 0 -6 4 3 10 19 12 23 12 15 0z m75 -4 c0 -2 -8 -10 -17 -17
-16 -13 -17 -12 -4 4 13 16 21 21 21 13z m-184 -35 c0 -17 -3 -28 -6 -26 -5 3
-6 38 -1 53 4 10 7 -3 7 -27z m102 -6 c-3 -3 -9 2 -12 12 -6 14 -5 15 5 6 7
-7 10 -15 7 -18z m-667 -12 c-12 -20 -14 -14 -5 12 4 9 9 14 11 11 3 -2 0 -13
-6 -23z m74 -22 c-9 -8 -36 -10 -30 -2 2 4 11 8 20 8 8 0 13 -3 10 -6z m209 1
c3 -5 -1 -9 -9 -9 -8 0 -12 4 -9 9 3 4 7 8 9 8 2 0 6 -4 9 -8z m86 -2 c0 -5
-2 -10 -4 -10 -3 0 -8 5 -11 10 -3 6 -1 10 4 10 6 0 11 -4 11 -10z m34 -6 c3
-8 2 -12 -4 -9 -6 3 -10 10 -10 16 0 14 7 11 14 -7z m-423 -41 c13 -16 12 -17
-3 -4 -17 13 -22 21 -14 21 2 0 10 -8 17 -17z m209 13 c0 -2 -7 -7 -16 -10 -8
-3 -12 -2 -9 4 6 10 25 14 25 6z m-126 -45 c-8 -8 -34 -10 -38 -2 -3 4 6 7 19
7 14 0 22 -2 19 -5z"/>
</g>
</svg>
