<?xml version="1.0" standalone="no"?>
<!DOCTYPE svg PUBLIC "-//W3C//DTD SVG 20010904//EN"
 "http://www.w3.org/TR/2001/REC-SVG-20010904/DTD/svg10.dtd">
<svg version="1.0" xmlns="http://www.w3.org/2000/svg"
 width="512.000000pt" height="512.000000pt" viewBox="0 0 512.000000 512.000000"
 preserveAspectRatio="xMidYMid meet">
<metadata>
Created by potrace 1.14, written by Peter Selinger 2001-2017
</metadata>
<g transform="translate(0.000000,512.000000) scale(0.100000,-0.100000)"
fill="#000000" stroke="none">
<path d="M3650 3614 c-50 -54 -231 -204 -271 -225 -27 -13 -50 -18 -66 -14
-17 4 -32 0 -44 -11 -18 -16 -22 -14 -88 30 -151 101 -250 127 -491 127 -446
1 -767 -152 -1017 -486 -147 -195 -177 -352 -98 -511 48 -98 115 -154 201
-168 33 -6 44 -13 56 -39 22 -47 67 -97 97 -109 14 -5 49 -14 76 -18 28 -4 88
-18 135 -30 112 -30 228 -24 395 20 329 86 517 181 667 337 149 155 277 410
278 554 0 20 7 42 15 49 8 7 15 28 15 47 0 18 9 50 19 71 40 76 179 216 267
268 17 10 17 12 0 56 -21 56 -30 64 -81 72 -36 6 -44 4 -65 -20z m55 -24 c3
-5 1 -10 -4 -10 -6 0 -11 5 -11 10 0 6 2 10 4 10 3 0 8 -4 11 -10z m40 -30
c13 0 2 -12 -35 -36 -30 -20 -98 -75 -150 -124 -90 -82 -161 -130 -194 -130
-15 0 -36 29 -36 49 0 6 12 14 28 17 51 13 103 45 180 112 133 116 144 124
166 118 12 -3 30 -6 41 -6z m-787 -109 c45 -12 99 -29 120 -40 41 -22 82 -52
67 -50 -5 1 -35 0 -65 -1 -36 -2 -45 -4 -25 -7 16 -3 36 -13 45 -23 8 -10 24
-20 35 -22 11 -2 -47 -7 -130 -11 -82 -4 -178 -12 -211 -17 -64 -10 -131 0
-89 13 28 9 140 28 203 34 36 3 50 8 45 16 -4 7 2 5 12 -3 10 -8 16 -10 12 -3
-4 7 0 14 10 17 26 8 -206 -3 -242 -11 -30 -7 -30 -7 -5 -13 22 -6 19 -8 -28
-24 -32 -11 -50 -22 -45 -29 4 -7 0 -8 -13 -3 -10 4 -15 4 -11 -1 5 -4 -14
-18 -40 -30 -44 -21 -43 -23 5 -7 9 3 4 -2 -11 -11 -16 -9 -35 -14 -43 -11
-10 4 -12 2 -8 -6 5 -8 2 -9 -10 -5 -11 5 -15 3 -10 -5 5 -8 2 -9 -10 -5 -11
5 -15 3 -10 -5 5 -8 2 -9 -10 -5 -11 5 -15 3 -10 -5 5 -8 2 -9 -10 -5 -9 4
-15 3 -12 -1 3 -5 -25 -23 -62 -41 -110 -54 -198 -116 -290 -204 -48 -46 -109
-99 -137 -117 -27 -19 -80 -65 -116 -102 l-67 -68 -25 20 c-41 33 -47 26 -47
-52 0 -122 -15 -64 -20 80 -5 124 -7 134 -19 107 -7 -16 -14 -67 -14 -113 -2
-87 -2 -87 -49 -67 -11 4 -18 1 -20 -12 -8 -33 -21 78 -15 132 7 66 56 165
138 275 184 249 417 394 727 450 142 26 385 22 510 -9z m392 -254 l80 -84 -15
-88 c-42 -238 -240 -509 -452 -618 -218 -112 -326 -116 -623 -22 -160 51 -225
55 -315 20 -38 -15 -90 -33 -114 -41 l-43 -14 4 68 c2 44 12 84 28 117 25 52
137 178 151 170 4 -3 11 0 15 6 4 8 3 9 -4 5 -7 -4 -12 -3 -12 1 0 9 114 113
124 113 3 0 74 41 158 92 272 162 363 205 493 233 17 3 -26 -26 -95 -66 -202
-115 -272 -169 -458 -352 -119 -117 -161 -169 -106 -130 16 12 101 87 189 168
224 205 334 277 591 383 66 27 162 73 214 104 85 49 96 53 102 37 4 -10 43
-56 88 -102z m-450 65 c0 -4 -35 -14 -77 -21 -230 -38 -499 -163 -664 -308
-30 -26 -63 -54 -74 -62 l-20 -16 20 24 c33 39 167 147 225 181 79 47 303 147
380 171 54 16 136 32 198 38 6 0 12 -3 12 -7z m-140 -59 c-251 -93 -365 -152
-520 -267 -135 -99 -317 -285 -358 -363 -37 -70 -51 -83 -27 -25 44 104 127
207 258 319 203 174 343 254 557 319 67 21 133 33 90 17z m130 -33 c-8 -5 -19
-10 -25 -10 -5 0 -3 5 5 10 8 5 20 10 25 10 6 0 3 -5 -5 -10z m-930 -414 c0
-2 -8 -10 -17 -17 -16 -13 -17 -12 -4 4 13 16 21 21 21 13z m-40 -50 c0 -2 -8
-10 -17 -17 -16 -13 -17 -12 -4 4 13 16 21 21 21 13z"/>
<path d="M2868 3303 c7 -3 16 -2 19 1 4 3 -2 6 -13 5 -11 0 -14 -3 -6 -6z"/>
<path d="M2580 3285 c-14 -8 -20 -14 -15 -14 6 0 21 6 35 14 14 8 21 14 15 14
-5 0 -21 -6 -35 -14z"/>
<path d="M2793 3293 c9 -2 23 -2 30 0 6 3 -1 5 -18 5 -16 0 -22 -2 -12 -5z"/>
<path d="M2738 3283 c7 -3 16 -2 19 1 4 3 -2 6 -13 5 -11 0 -14 -3 -6 -6z"/>
<path d="M2394 3194 c-18 -14 -18 -14 6 -3 31 14 36 19 24 19 -6 0 -19 -7 -30
-16z"/>
<path d="M2005 2649 c-4 -6 -5 -12 -2 -15 2 -3 7 2 10 11 7 17 1 20 -8 4z"/>
<path d="M2373 2605 c-22 -21 -24 -25 -9 -23 10 2 25 13 34 26 19 29 10 28
-25 -3z"/>
<path d="M3028 2273 c12 -2 32 -2 45 0 12 2 2 4 -23 4 -25 0 -35 -2 -22 -4z"/>
<path d="M3153 2263 c9 -2 23 -2 30 0 6 3 -1 5 -18 5 -16 0 -22 -2 -12 -5z"/>
<path d="M3238 2253 c7 -3 16 -2 19 1 4 3 -2 6 -13 5 -11 0 -14 -3 -6 -6z"/>
<path d="M3198 2093 c7 -3 16 -2 19 1 4 3 -2 6 -13 5 -11 0 -14 -3 -6 -6z"/>
<path d="M3098 2083 c7 -3 16 -2 19 1 4 3 -2 6 -13 5 -11 0 -14 -3 -6 -6z"/>
<path d="M2943 2073 c15 -2 39 -2 55 0 15 2 2 4 -28 4 -30 0 -43 -2 -27 -4z"/>
<path d="M2757 2063 c18 -2 50 -2 70 0 21 2 7 4 -32 4 -38 0 -55 -2 -38 -4z"/>
</g>
</svg>
